<?xml version="1.0" standalone="no"?>
<svg xmlns:xlink="http://www.w3.org/1999/xlink" id="wave" style="transform:rotate(0deg); transition: 0.3s" viewBox="0 0 1440 180" version="1.1" xmlns="http://www.w3.org/2000/svg"><defs><linearGradient id="sw-gradient-0" x1="0" x2="0" y1="1" y2="0"><stop stop-color="rgba(0, 125.43, 255, 1)" offset="0%"/><stop stop-color="rgba(208.121, 235.944, 255, 1)" offset="100%"/></linearGradient></defs><path style="transform:translate(0, 0px); opacity:1" fill="url(#sw-gradient-0)" d="M0,162L10.9,144C21.8,126,44,90,65,66C87.3,42,109,30,131,33C152.7,36,175,54,196,57C218.2,60,240,48,262,51C283.6,54,305,72,327,87C349.1,102,371,114,393,102C414.5,90,436,54,458,48C480,42,502,66,524,84C545.5,102,567,114,589,120C610.9,126,633,126,655,126C676.4,126,698,126,720,129C741.8,132,764,138,785,141C807.3,144,829,144,851,144C872.7,144,895,144,916,138C938.2,132,960,120,982,114C1003.6,108,1025,108,1047,99C1069.1,90,1091,72,1113,72C1134.5,72,1156,90,1178,96C1200,102,1222,96,1244,105C1265.5,114,1287,138,1309,135C1330.9,132,1353,102,1375,78C1396.4,54,1418,36,1440,42C1461.8,48,1484,78,1505,99C1527.3,120,1549,132,1560,138L1570.9,144L1570.9,180L1560,180C1549.1,180,1527,180,1505,180C1483.6,180,1462,180,1440,180C1418.2,180,1396,180,1375,180C1352.7,180,1331,180,1309,180C1287.3,180,1265,180,1244,180C1221.8,180,1200,180,1178,180C1156.4,180,1135,180,1113,180C1090.9,180,1069,180,1047,180C1025.5,180,1004,180,982,180C960,180,938,180,916,180C894.5,180,873,180,851,180C829.1,180,807,180,785,180C763.6,180,742,180,720,180C698.2,180,676,180,655,180C632.7,180,611,180,589,180C567.3,180,545,180,524,180C501.8,180,480,180,458,180C436.4,180,415,180,393,180C370.9,180,349,180,327,180C305.5,180,284,180,262,180C240,180,218,180,196,180C174.5,180,153,180,131,180C109.1,180,87,180,65,180C43.6,180,22,180,11,180L0,180Z"/><defs><linearGradient id="sw-gradient-1" x1="0" x2="0" y1="1" y2="0"><stop stop-color="rgba(0, 37.552, 116.436, 1)" offset="0%"/><stop stop-color="rgba(98.707, 149.113, 255, 1)" offset="100%"/></linearGradient></defs><path style="transform:translate(0, 50px); opacity:0.9" fill="url(#sw-gradient-1)" d="M0,144L10.9,141C21.8,138,44,132,65,135C87.3,138,109,150,131,147C152.7,144,175,126,196,120C218.2,114,240,120,262,120C283.6,120,305,114,327,105C349.1,96,371,84,393,90C414.5,96,436,120,458,123C480,126,502,108,524,108C545.5,108,567,126,589,135C610.9,144,633,144,655,129C676.4,114,698,84,720,75C741.8,66,764,78,785,84C807.3,90,829,90,851,84C872.7,78,895,66,916,51C938.2,36,960,18,982,30C1003.6,42,1025,84,1047,87C1069.1,90,1091,54,1113,36C1134.5,18,1156,18,1178,24C1200,30,1222,42,1244,45C1265.5,48,1287,42,1309,39C1330.9,36,1353,36,1375,57C1396.4,78,1418,120,1440,132C1461.8,144,1484,126,1505,105C1527.3,84,1549,60,1560,48L1570.9,36L1570.9,180L1560,180C1549.1,180,1527,180,1505,180C1483.6,180,1462,180,1440,180C1418.2,180,1396,180,1375,180C1352.7,180,1331,180,1309,180C1287.3,180,1265,180,1244,180C1221.8,180,1200,180,1178,180C1156.4,180,1135,180,1113,180C1090.9,180,1069,180,1047,180C1025.5,180,1004,180,982,180C960,180,938,180,916,180C894.5,180,873,180,851,180C829.1,180,807,180,785,180C763.6,180,742,180,720,180C698.2,180,676,180,655,180C632.7,180,611,180,589,180C567.3,180,545,180,524,180C501.8,180,480,180,458,180C436.4,180,415,180,393,180C370.9,180,349,180,327,180C305.5,180,284,180,262,180C240,180,218,180,196,180C174.5,180,153,180,131,180C109.1,180,87,180,65,180C43.6,180,22,180,11,180L0,180Z"/></svg>